<svg width="33" height="32" viewBox="0 0 33 32" fill="none" xmlns="http://www.w3.org/2000/svg">
<g opacity="0.9">
<g clip-path="url(#clip0_2_2191)">
<g clip-path="url(#clip1_2_2191)">
<path fill-rule="evenodd" clip-rule="evenodd" d="M29.2845 0H3.28513C1.63376 0 0.280029 1.35374 0.280029 2.9955V28.9949C0.280029 30.6463 1.63376 31.9904 3.28513 31.9904H29.2845C30.9359 31.9904 32.2896 30.6367 32.2896 28.9949V2.9955C32.2896 1.34413 30.9359 0 29.2845 0ZM20.202 5.9814C20.5381 8.82328 22.1222 10.5227 24.8777 10.7051V13.9022C23.2743 14.0558 21.8726 13.5374 20.2404 12.5485V18.5299C20.2404 26.1338 11.9548 28.5149 8.62326 23.0615C6.48225 19.5572 7.78798 13.4029 14.6623 13.1533V16.5329C14.1438 16.6193 13.5774 16.7537 13.0685 16.9169C11.542 17.4353 10.6779 18.405 10.9179 20.1044C11.3787 23.3783 17.3889 24.3384 16.8801 17.9442V5.9718H20.1924L20.202 5.9814Z" fill="black"/>
</g>
</g>
</g>
<defs>
<clipPath id="clip0_2_2191">
<rect x="0.280029" width="32" height="32" rx="4" fill="white"/>
</clipPath>
<clipPath id="clip1_2_2191">
<rect width="32" height="32" fill="white" transform="translate(0.280029)"/>
</clipPath>
</defs>
</svg>
